<?xml version="1.0" encoding="utf-8"?>
<!-- Svg Vector Icons : http://www.onlinewebfonts.com/icon -->
<!DOCTYPE svg PUBLIC "-//W3C//DTD SVG 1.1//EN" "http://www.w3.org/Graphics/SVG/1.1/DTD/svg11.dtd">
<svg version="1.1" xmlns="http://www.w3.org/2000/svg" xmlns:xlink="http://www.w3.org/1999/xlink" x="0px" y="0px" viewBox="0 0 1000 1000" enable-background="new 0 0 1000 1000" xml:space="preserve">
<metadata> Svg Vector Icons : http://www.onlinewebfonts.com/icon </metadata>
<g><g transform="translate(0.000000,511.000000) scale(0.100000,-0.100000)"><path d="M7503.6,3942.7c-182.3-170.4-137.5-442.3,92.6-555.9c295.9-143.5,576.8,164.4,433.3,475.2C7948.8,4038.3,7656,4083.1,7503.6,3942.7z M7811.4,3769.3c56.8-59.8,47.8-128.5-20.9-173.3c-113.6-68.7-233.1,104.6-125.5,182.3C7733.7,3829.1,7751.6,3826.1,7811.4,3769.3z"/><path d="M4464.3,3398.7c-292.9-47.8-699.3-173.3-992.2-313.8c-1093.8-517-1837.9-1551-1984.3-2752.4l-35.9-295.9L1221.8-91.8c-481.1-269-893.5-669.4-1054.9-1022.1c-89.7-197.2-89.7-537.9,3-711.3c251-472.2,932.4-744.1,2011.2-800.9l400.4-20.9l167.4-152.4c523-469.2,1443.4-795,2253.3-795c292.9,0,747.1,80.7,1084.8,194.2c517,173.3,896.5,403.4,1288,777c295.8,280.9,451.2,478.2,645.5,815.8c131.5,224.1,373.6,851.7,373.6,965.3c0,26.9,125.5,140.4,277.9,254c149.4,110.6,397.5,325.7,546.9,475.1c1031,1019.1,875.6,1951.5-358.6,2166.7c-206.2,35.9-744.1,35.9-947.3,3l-140.5-20.9l-158.4,182.3c-487.1,552.9-1093.8,923.4-1817,1111.7C5474.4,3413.7,4787,3446.6,4464.3,3398.7z M5106.8,3129.8c-98.6-182.3-585.7-460.2-1057.9-600.7c-245.1-71.7-272-86.7-280.9-155.4c-14.9-128.5,65.7-143.5,352.6-62.8c529,152.4,1031,454.2,1192.4,717.2c89.7,146.4,101.6,149.4,400.4,83.7c406.4-92.6,827.8-277.9,827.8-364.6c-3-283.9-517-756.1-1186.4-1087.8c-203.2-101.6-248-134.5-248-191.3c0-38.8,26.9-83.7,59.8-101.6c44.8-23.9,110.6-3,334.7,110.6c606.7,313.8,1028,666.4,1180.4,995.2c47.8,98.6,89.7,179.3,98.6,179.3c50.8,0,520-412.4,666.4-585.7c131.5-158.4,170.4-227.1,170.4-304.8c0-134.5-68.7-286.9-212.2-472.2c-134.5-176.3-143.5-260-23.9-274.9c95.6-12,254,158.4,367.6,391.5l74.7,146.4l71.7-146.4c107.6-212.2,227.1-561.8,280.9-815.8l44.8-224.1l-113.6-101.6C7103.1-617.8,5307-1355.9,3630.5-1577.1c-355.6-44.8-1177.5-59.8-1437.5-23.9c-140.5,17.9-140.5,17.9-230.1,215.2c-86.7,194.2-206.2,612.6-245,863.6L1700-396.6l152.4-74.7c164.4-86.6,552.9-194.2,687.3-194.2c92.6,0,158.4,83.7,128.5,161.4c-9,26.9-20.9,47.8-23.9,47.8c0,3-104.6,20.9-227.1,41.9c-295.9,53.8-517,149.4-627.6,277.9C1714.9-55.9,1700-8.1,1700,108.4c0,176.3,71.7,564.8,152.4,824.8l56.8,191.3l143.4-86.7c257-161.4,812.9-248,884.6-140.5c62.8,98.6-12,149.4-269,188.3c-269,38.8-531.9,140.4-594.7,230.1c-38.8,56.8-35.9,77.7,50.8,227.1c116.5,212.2,277.9,427.4,466.2,633.6l149.4,161.4l107.6-53.8c140.5-65.8,487.1-116.6,600.7-86.7c47.8,14.9,98.6,44.8,116.5,71.7c56.8,89.7-23.9,134.5-277.9,152.4c-131.5,9-260,26.9-289.9,44.8c-44.8,23.9-32.9,41.9,95.6,137.5c478.2,349.7,1171.5,579.8,1769.2,582.7C5130.7,3189.5,5136.7,3186.6,5106.8,3129.8z M9003.8,1782c271.9-65.7,478.2-188.3,585.7-343.7c62.7-92.6,74.7-146.4,74.7-322.7c0-176.3-15-245.1-92.6-406.4c-499.1-1052-2597-2262.3-4862.2-2809.2c-881.6-212.2-1560-298.8-2319.1-298.8c-1294,0-2065,349.7-2065,938.4c0,322.8,316.8,723.2,836.8,1060.9l283.9,182.3l20.9-125.5c20.9-122.5,17.9-131.5-110.6-263c-242.1-245.1-307.8-499.1-194.3-735.1c277.9-573.8,1843.9-681.4,3604.1-251C5788.2-1341,6858-883.7,7661.9-351.8c424.4,277.9,941.4,774,1057.9,1016.1c104.6,209.2,116.5,418.4,35.8,576.8c-98.6,191.3-254,277.9-630.6,346.7c-68.7,14.9-179.3,149.4-179.3,224.1S8657.1,1865.7,9003.8,1782z M8447.9,1259c110.6-71.7,158.4-218.2,122.5-358.6c-35.9-125.5-116.6-280.9-149.4-280.9c-9,0-35.9,77.7-56.8,173.3c-20.9,92.6-68.7,251-107.6,346.7c-38.9,98.6-71.7,182.3-71.7,191.3C8184.9,1357.6,8376.2,1303.8,8447.9,1259z M1550.5-850.9c0-38.8,44.8-200.2,101.6-358.6c53.8-161.4,95.6-292.9,86.7-292.9c-47.8,0-313.8,161.4-349.6,215.2c-83.7,119.5-56.8,310.8,65.7,451.2C1517.7-767.2,1550.5-773.2,1550.5-850.9z M8068.4-1149.7c-29.9-89.6-77.7-203.2-101.6-251c-59.8-116.6-382.5-421.4-609.7-573.8c-197.2-134.5-224.1-170.4-182.3-251c32.9-68.7,122.5-68.7,227.1-3c77.7,50.8,74.7,47.8-17.9-62.7c-388.5-451.3-992.2-806.9-1658.6-980.2c-307.8-80.7-1049-92.6-1380.7-26.9l-209.2,44.8l358.6,38.8c663.5,68.7,1398.6,263,2047.1,537.9c361.6,155.4,394.5,176.3,382.5,257c-20.9,128.5-92.6,128.5-379.5-3c-543.9-254-1305.9-469.2-1924.6-546.9c-376.6-44.8-1063.9-20.9-1240.2,44.8c-71.7,23.9-209.2,104.6-310.8,173.3L2889.4-2626l442.3,50.8c588.7,65.7,917.5,125.5,1491.2,266c1066.9,263,2265.3,735.2,3063.2,1207.4c122.5,71.7,227.1,128.5,233.1,125.5C8122.2-982.4,8101.2-1057.1,8068.4-1149.7z"/><path d="M4016,1853.7c-316.8-83.7-756.1-119.5-923.4-74.7c-218.2,62.8-319.8-104.6-122.5-203.2c122.5-59.8,621.6-56.8,926.4,9c517,107.6,651.5,185.3,552.9,304.8C4401.5,1946.3,4344.7,1940.4,4016,1853.7z"/><path d="M5734.4,999c-373.6-197.2-821.8-364.6-1314.9-490.1c-221.1-53.8-412.4-116.5-424.4-137.5c-35.8-56.8-29.9-98.6,23.9-143.5c167.4-140.5,2163.7,606.7,2163.7,809.9c0,38.8-89.7,119.5-128.5,116.5C6033.2,1151.4,5889.8,1082.7,5734.4,999z"/><path d="M3433.3,1094.6c-310.8-41.8-328.7-50.8-328.7-131.5c0-107.6,74.7-128.5,340.7-101.6c251,29.9,316.8,59.8,316.8,149.4c0,44.8-89.7,125.5-125.5,113.6C3630.5,1121.5,3540.8,1109.6,3433.3,1094.6z"/><path d="M6765.4,721.1c-361.6-251-1102.7-606.7-1631.7-783c-549.9-182.3-980.2-283.9-1491.3-349.6c-206.2-26.9-385.5-59.8-397.5-74.7c-14.9-11.9-20.9-53.8-14.9-92.6c9-68.7,14.9-71.7,277.9-65.8c457.2,9,1386.6,227.1,2020.2,472.2C6125.9,60.6,6947.7,514.9,7118,703.1c71.7,77.7,41.8,185.3-47.8,185.3C7034.4,888.4,6896.9,813.7,6765.4,721.1z"/><path d="M7557.3,496.9c-215.2-203.2-573.8-448.3-857.7-591.7c-206.2-101.6-230.1-128.5-203.2-212.2c29.9-92.6,143.4-74.7,412.4,65.8c260,134.5,747.1,487.1,911.5,660.5c122.5,125.5,122.5,242.1,6,251C7769.5,676.3,7700.8,631.4,7557.3,496.9z"/><path d="M2515.8-1137.8c-146.4-146.4,152.4-242.1,627.6-203.2c131.5,11.9,263,32.9,292.9,50.8c65.7,32.9,74.7,131.5,20.9,167.3c-20.9,12-233.1,23.9-469.2,23.9C2668.2-1098.9,2545.7-1107.9,2515.8-1137.8z"/><path d="M6917.8-1699.6c-185.3-125.5-636.5-331.7-959.3-433.3c-164.4-53.8-316.8-110.6-334.7-125.5c-59.8-44.8-47.8-164.4,20.9-185.3c134.5-41.8,1153.5,367.6,1428.5,573.8c98.6,74.7,122.5,149.4,59.8,212.2C7082.2-1607,7046.3-1612.9,6917.8-1699.6z"/><path d="M2058.6,3339c-146.4-146.4-9-415.4,194.2-376.5c182.3,35.9,248,212.2,131.5,358.6C2306.6,3419.7,2148.2,3428.6,2058.6,3339z"/><path d="M728.7,3180.6c-182.3-89.7-260-170.4-346.7-361.6c-218.1-493.1,254-1040,786-914.5c221.1,53.8,448.3,280.9,502.1,502.1C1798.6,2953.5,1227.8,3422.6,728.7,3180.6z M1251.7,2944.5c53.8-38.8,122.5-116.5,152.4-173.3c203.2-382.5-218.2-803.9-600.7-600.7c-415.4,218.2-260,839.8,212.2,839.8C1108.2,3010.2,1185.9,2989.3,1251.7,2944.5z"/><path d="M8274.6,3049.1c-98.6-35.9-149.4-110.6-149.4-218.2c0-215.2,239.1-301.8,379.5-137.5c86.7,101.6,86.7,173.3,3,269C8433,3040.1,8346.3,3073,8274.6,3049.1z"/><path d="M489.6,574.6C343.2,431.2,441.8,201.1,645,201.1c110.6,0,218.2,113.6,218.2,230.1c0,95.6-125.5,218.1-224.1,218.1C597.2,649.4,528.5,616.5,489.6,574.6z"/><path d="M8985.8-949.5c-143.4-98.6-209.2-227.1-209.2-403.4c0-277.9,194.3-478.2,463.2-478.2c382.5,0,621.6,388.5,436.3,714.2c-92.7,164.4-194.2,224.1-400.5,236.1C9120.3-871.8,9081.5-880.8,8985.8-949.5z M9377.3-1128.8c179.3-89.6,176.3-358.6-3-451.2c-230.1-119.5-481.1,149.4-340.7,364.6C9117.3-1090,9242.9-1057.1,9377.3-1128.8z"/><path d="M8427-2177.7c-101.6-128.5-77.7-257,59.8-328.7c158.4-80.7,325.8,23.9,325.8,203.2C8812.5-2109,8546.5-2025.3,8427-2177.7z"/><path d="M2046.6-3417.9c-98.6-77.7-107.6-236.1-17.9-325.8c89.7-89.7,248-80.7,325.7,17.9c71.7,89.6,77.7,128.5,29.9,230.1c-32.9,71.7-140.4,140.5-218.1,140.5C2145.2-3355.2,2091.4-3382.1,2046.6-3417.9z"/></g></g>
</svg>